<svg width="244" height="109" viewBox="0 0 244 109" fill="none" xmlns="http://www.w3.org/2000/svg">
<g clip-path="url(#clip0_25_35)">
<path d="M84.5321 47.6854C97.8808 47.6854 108.702 38.2066 108.702 26.5141C108.702 14.8217 97.8808 5.34308 84.5321 5.34308C71.1833 5.34308 60.3619 14.8217 60.3619 26.5141C60.3619 38.2066 71.1833 47.6854 84.5321 47.6854Z" fill="#E0EAF9"/>
<path d="M138.563 47.6854C151.912 47.6854 162.733 38.2066 162.733 26.5141C162.733 14.8217 151.912 5.34308 138.563 5.34308C125.214 5.34308 114.393 14.8217 114.393 26.5141C114.393 38.2066 125.214 47.6854 138.563 47.6854Z" fill="#E0EAF9"/>
<path d="M54.6709 5.34308H6.35388V47.6651H54.6709V5.34308Z" fill="#E0EAF9"/>
<mask id="path-4-outside-1_25_35" maskUnits="userSpaceOnUse" x="8.97144" y="55.6854" width="189" height="43" fill="black">
<rect fill="white" x="8.97144" y="55.6854" width="189" height="43"/>
<path d="M24.0114 72.3254C25.0248 72.4854 25.9448 72.8987 26.7714 73.5654C27.6248 74.232 28.2914 75.0587 28.7714 76.0454C29.2781 77.032 29.5314 78.0854 29.5314 79.2054C29.5314 80.6187 29.1714 81.8987 28.4514 83.0454C27.7314 84.1654 26.6781 85.0587 25.2914 85.7254C23.9314 86.3654 22.3181 86.6854 20.4514 86.6854H10.0514V58.8054H20.0514C21.9448 58.8054 23.5581 59.1254 24.8914 59.7654C26.2248 60.3787 27.2248 61.2187 27.8914 62.2854C28.5581 63.352 28.8914 64.552 28.8914 65.8854C28.8914 67.5387 28.4381 68.912 27.5314 70.0054C26.6514 71.072 25.4781 71.8454 24.0114 72.3254ZM13.6914 70.8454H19.8114C21.5181 70.8454 22.8381 70.4454 23.7714 69.6454C24.7048 68.8454 25.1714 67.7387 25.1714 66.3254C25.1714 64.912 24.7048 63.8054 23.7714 63.0054C22.8381 62.2054 21.4914 61.8054 19.7314 61.8054H13.6914V70.8454ZM20.1314 83.6854C21.9448 83.6854 23.3581 83.2587 24.3714 82.4054C25.3848 81.552 25.8914 80.3654 25.8914 78.8454C25.8914 77.2987 25.3581 76.0854 24.2914 75.2054C23.2248 74.2987 21.7981 73.8454 20.0114 73.8454H13.6914V83.6854H20.1314ZM33.2227 75.6454C33.2227 73.4054 33.676 71.4454 34.5827 69.7654C35.4894 68.0587 36.7294 66.7387 38.3027 65.8054C39.9027 64.872 41.676 64.4054 43.6227 64.4054C45.5427 64.4054 47.2094 64.8187 48.6227 65.6454C50.036 66.472 51.0894 67.512 51.7827 68.7654V64.7654H55.4627V86.6854H51.7827V82.6054C51.0627 83.8854 49.9827 84.952 48.5427 85.8054C47.1294 86.632 45.476 87.0454 43.5827 87.0454C41.636 87.0454 39.876 86.5654 38.3027 85.6054C36.7294 84.6454 35.4894 83.2987 34.5827 81.5654C33.676 79.832 33.2227 77.8587 33.2227 75.6454ZM51.7827 75.6854C51.7827 74.032 51.4494 72.592 50.7827 71.3654C50.116 70.1387 49.2094 69.2054 48.0627 68.5654C46.9427 67.8987 45.7027 67.5654 44.3427 67.5654C42.9827 67.5654 41.7427 67.8854 40.6227 68.5254C39.5027 69.1654 38.6094 70.0987 37.9427 71.3254C37.276 72.552 36.9427 73.992 36.9427 75.6454C36.9427 77.3254 37.276 78.792 37.9427 80.0454C38.6094 81.272 39.5027 82.2187 40.6227 82.8854C41.7427 83.5254 42.9827 83.8454 44.3427 83.8454C45.7027 83.8454 46.9427 83.5254 48.0627 82.8854C49.2094 82.2187 50.116 81.272 50.7827 80.0454C51.4494 78.792 51.7827 77.3387 51.7827 75.6854ZM65.2539 68.3254C65.8939 67.072 66.8006 66.0987 67.9739 65.4054C69.1739 64.712 70.6273 64.3654 72.3339 64.3654V68.1254H71.3739C67.2939 68.1254 65.2539 70.3387 65.2539 74.7654V86.6854H61.6139V64.7654H65.2539V68.3254ZM75.1758 75.6454C75.1758 73.4054 75.6291 71.4454 76.5358 69.7654C77.4425 68.0587 78.6825 66.7387 80.2558 65.8054C81.8558 64.872 83.6291 64.4054 85.5758 64.4054C87.4958 64.4054 89.1625 64.8187 90.5758 65.6454C91.9891 66.472 93.0425 67.512 93.7358 68.7654V64.7654H97.4158V86.6854H93.7358V82.6054C93.0158 83.8854 91.9358 84.952 90.4958 85.8054C89.0825 86.632 87.4291 87.0454 85.5358 87.0454C83.5891 87.0454 81.8291 86.5654 80.2558 85.6054C78.6825 84.6454 77.4425 83.2987 76.5358 81.5654C75.6291 79.832 75.1758 77.8587 75.1758 75.6454ZM93.7358 75.6854C93.7358 74.032 93.4025 72.592 92.7358 71.3654C92.0691 70.1387 91.1625 69.2054 90.0158 68.5654C88.8958 67.8987 87.6558 67.5654 86.2958 67.5654C84.9358 67.5654 83.6958 67.8854 82.5758 68.5254C81.4558 69.1654 80.5625 70.0987 79.8958 71.3254C79.2291 72.552 78.8958 73.992 78.8958 75.6454C78.8958 77.3254 79.2291 78.792 79.8958 80.0454C80.5625 81.272 81.4558 82.2187 82.5758 82.8854C83.6958 83.5254 84.9358 83.8454 86.2958 83.8454C87.6558 83.8454 88.8958 83.5254 90.0158 82.8854C91.1625 82.2187 92.0691 81.272 92.7358 80.0454C93.4025 78.792 93.7358 77.3387 93.7358 75.6854ZM114.247 64.3654C116.914 64.3654 119.074 65.1787 120.727 66.8054C122.38 68.4054 123.207 70.7254 123.207 73.7654V86.6854H119.607V74.2854C119.607 72.0987 119.06 70.432 117.967 69.2854C116.874 68.112 115.38 67.5254 113.487 67.5254C111.567 67.5254 110.034 68.1254 108.887 69.3254C107.767 70.5254 107.207 72.272 107.207 74.5654V86.6854H103.567V64.7654H107.207V67.8854C107.927 66.7654 108.9 65.8987 110.127 65.2854C111.38 64.672 112.754 64.3654 114.247 64.3654ZM138.193 64.4054C140.086 64.4054 141.74 64.8187 143.153 65.6454C144.593 66.472 145.66 67.512 146.353 68.7654V64.7654H150.033V87.1654C150.033 89.1654 149.606 90.9387 148.753 92.4854C147.9 94.0587 146.673 95.2854 145.073 96.1654C143.5 97.0454 141.66 97.4854 139.553 97.4854C136.673 97.4854 134.273 96.8054 132.353 95.4454C130.433 94.0854 129.3 92.232 128.953 89.8854H132.553C132.953 91.2187 133.78 92.2854 135.033 93.0854C136.286 93.912 137.793 94.3254 139.553 94.3254C141.553 94.3254 143.18 93.6987 144.433 92.4454C145.713 91.192 146.353 89.432 146.353 87.1654V82.5654C145.633 83.8454 144.566 84.912 143.153 85.7654C141.74 86.6187 140.086 87.0454 138.193 87.0454C136.246 87.0454 134.473 86.5654 132.873 85.6054C131.3 84.6454 130.06 83.2987 129.153 81.5654C128.246 79.832 127.793 77.8587 127.793 75.6454C127.793 73.4054 128.246 71.4454 129.153 69.7654C130.06 68.0587 131.3 66.7387 132.873 65.8054C134.473 64.872 136.246 64.4054 138.193 64.4054ZM146.353 75.6854C146.353 74.032 146.02 72.592 145.353 71.3654C144.686 70.1387 143.78 69.2054 142.633 68.5654C141.513 67.8987 140.273 67.5654 138.913 67.5654C137.553 67.5654 136.313 67.8854 135.193 68.5254C134.073 69.1654 133.18 70.0987 132.513 71.3254C131.846 72.552 131.513 73.992 131.513 75.6454C131.513 77.3254 131.846 78.792 132.513 80.0454C133.18 81.272 134.073 82.2187 135.193 82.8854C136.313 83.5254 137.553 83.8454 138.913 83.8454C140.273 83.8454 141.513 83.5254 142.633 82.8854C143.78 82.2187 144.686 81.272 145.353 80.0454C146.02 78.792 146.353 77.3387 146.353 75.6854ZM168.424 86.6854L159.824 77.0054V86.6854H156.184V57.0854H159.824V74.4854L168.264 64.7654H173.344L163.024 75.6854L173.384 86.6854H168.424ZM196.21 64.7654V86.6854H192.57V83.4454C191.877 84.5654 190.904 85.4454 189.65 86.0854C188.424 86.6987 187.064 87.0054 185.57 87.0054C183.864 87.0054 182.33 86.6587 180.97 85.9654C179.61 85.2454 178.53 84.1787 177.73 82.7654C176.957 81.352 176.57 79.632 176.57 77.6054V64.7654H180.17V77.1254C180.17 79.2854 180.717 80.952 181.81 82.1254C182.904 83.272 184.397 83.8454 186.29 83.8454C188.237 83.8454 189.77 83.2454 190.89 82.0454C192.01 80.8454 192.57 79.0987 192.57 76.8054V64.7654H196.21Z"/>
</mask>
<path d="M24.0114 72.3254C25.0248 72.4854 25.9448 72.8987 26.7714 73.5654C27.6248 74.232 28.2914 75.0587 28.7714 76.0454C29.2781 77.032 29.5314 78.0854 29.5314 79.2054C29.5314 80.6187 29.1714 81.8987 28.4514 83.0454C27.7314 84.1654 26.6781 85.0587 25.2914 85.7254C23.9314 86.3654 22.3181 86.6854 20.4514 86.6854H10.0514V58.8054H20.0514C21.9448 58.8054 23.5581 59.1254 24.8914 59.7654C26.2248 60.3787 27.2248 61.2187 27.8914 62.2854C28.5581 63.352 28.8914 64.552 28.8914 65.8854C28.8914 67.5387 28.4381 68.912 27.5314 70.0054C26.6514 71.072 25.4781 71.8454 24.0114 72.3254ZM13.6914 70.8454H19.8114C21.5181 70.8454 22.8381 70.4454 23.7714 69.6454C24.7048 68.8454 25.1714 67.7387 25.1714 66.3254C25.1714 64.912 24.7048 63.8054 23.7714 63.0054C22.8381 62.2054 21.4914 61.8054 19.7314 61.8054H13.6914V70.8454ZM20.1314 83.6854C21.9448 83.6854 23.3581 83.2587 24.3714 82.4054C25.3848 81.552 25.8914 80.3654 25.8914 78.8454C25.8914 77.2987 25.3581 76.0854 24.2914 75.2054C23.2248 74.2987 21.7981 73.8454 20.0114 73.8454H13.6914V83.6854H20.1314ZM33.2227 75.6454C33.2227 73.4054 33.676 71.4454 34.5827 69.7654C35.4894 68.0587 36.7294 66.7387 38.3027 65.8054C39.9027 64.872 41.676 64.4054 43.6227 64.4054C45.5427 64.4054 47.2094 64.8187 48.6227 65.6454C50.036 66.472 51.0894 67.512 51.7827 68.7654V64.7654H55.4627V86.6854H51.7827V82.6054C51.0627 83.8854 49.9827 84.952 48.5427 85.8054C47.1294 86.632 45.476 87.0454 43.5827 87.0454C41.636 87.0454 39.876 86.5654 38.3027 85.6054C36.7294 84.6454 35.4894 83.2987 34.5827 81.5654C33.676 79.832 33.2227 77.8587 33.2227 75.6454ZM51.7827 75.6854C51.7827 74.032 51.4494 72.592 50.7827 71.3654C50.116 70.1387 49.2094 69.2054 48.0627 68.5654C46.9427 67.8987 45.7027 67.5654 44.3427 67.5654C42.9827 67.5654 41.7427 67.8854 40.6227 68.5254C39.5027 69.1654 38.6094 70.0987 37.9427 71.3254C37.276 72.552 36.9427 73.992 36.9427 75.6454C36.9427 77.3254 37.276 78.792 37.9427 80.0454C38.6094 81.272 39.5027 82.2187 40.6227 82.8854C41.7427 83.5254 42.9827 83.8454 44.3427 83.8454C45.7027 83.8454 46.9427 83.5254 48.0627 82.8854C49.2094 82.2187 50.116 81.272 50.7827 80.0454C51.4494 78.792 51.7827 77.3387 51.7827 75.6854ZM65.2539 68.3254C65.8939 67.072 66.8006 66.0987 67.9739 65.4054C69.1739 64.712 70.6273 64.3654 72.3339 64.3654V68.1254H71.3739C67.2939 68.1254 65.2539 70.3387 65.2539 74.7654V86.6854H61.6139V64.7654H65.2539V68.3254ZM75.1758 75.6454C75.1758 73.4054 75.6291 71.4454 76.5358 69.7654C77.4425 68.0587 78.6825 66.7387 80.2558 65.8054C81.8558 64.872 83.6291 64.4054 85.5758 64.4054C87.4958 64.4054 89.1625 64.8187 90.5758 65.6454C91.9891 66.472 93.0425 67.512 93.7358 68.7654V64.7654H97.4158V86.6854H93.7358V82.6054C93.0158 83.8854 91.9358 84.952 90.4958 85.8054C89.0825 86.632 87.4291 87.0454 85.5358 87.0454C83.5891 87.0454 81.8291 86.5654 80.2558 85.6054C78.6825 84.6454 77.4425 83.2987 76.5358 81.5654C75.6291 79.832 75.1758 77.8587 75.1758 75.6454ZM93.7358 75.6854C93.7358 74.032 93.4025 72.592 92.7358 71.3654C92.0691 70.1387 91.1625 69.2054 90.0158 68.5654C88.8958 67.8987 87.6558 67.5654 86.2958 67.5654C84.9358 67.5654 83.6958 67.8854 82.5758 68.5254C81.4558 69.1654 80.5625 70.0987 79.8958 71.3254C79.2291 72.552 78.8958 73.992 78.8958 75.6454C78.8958 77.3254 79.2291 78.792 79.8958 80.0454C80.5625 81.272 81.4558 82.2187 82.5758 82.8854C83.6958 83.5254 84.9358 83.8454 86.2958 83.8454C87.6558 83.8454 88.8958 83.5254 90.0158 82.8854C91.1625 82.2187 92.0691 81.272 92.7358 80.0454C93.4025 78.792 93.7358 77.3387 93.7358 75.6854ZM114.247 64.3654C116.914 64.3654 119.074 65.1787 120.727 66.8054C122.38 68.4054 123.207 70.7254 123.207 73.7654V86.6854H119.607V74.2854C119.607 72.0987 119.06 70.432 117.967 69.2854C116.874 68.112 115.38 67.5254 113.487 67.5254C111.567 67.5254 110.034 68.1254 108.887 69.3254C107.767 70.5254 107.207 72.272 107.207 74.5654V86.6854H103.567V64.7654H107.207V67.8854C107.927 66.7654 108.9 65.8987 110.127 65.2854C111.38 64.672 112.754 64.3654 114.247 64.3654ZM138.193 64.4054C140.086 64.4054 141.74 64.8187 143.153 65.6454C144.593 66.472 145.66 67.512 146.353 68.7654V64.7654H150.033V87.1654C150.033 89.1654 149.606 90.9387 148.753 92.4854C147.9 94.0587 146.673 95.2854 145.073 96.1654C143.5 97.0454 141.66 97.4854 139.553 97.4854C136.673 97.4854 134.273 96.8054 132.353 95.4454C130.433 94.0854 129.3 92.232 128.953 89.8854H132.553C132.953 91.2187 133.78 92.2854 135.033 93.0854C136.286 93.912 137.793 94.3254 139.553 94.3254C141.553 94.3254 143.18 93.6987 144.433 92.4454C145.713 91.192 146.353 89.432 146.353 87.1654V82.5654C145.633 83.8454 144.566 84.912 143.153 85.7654C141.74 86.6187 140.086 87.0454 138.193 87.0454C136.246 87.0454 134.473 86.5654 132.873 85.6054C131.3 84.6454 130.06 83.2987 129.153 81.5654C128.246 79.832 127.793 77.8587 127.793 75.6454C127.793 73.4054 128.246 71.4454 129.153 69.7654C130.06 68.0587 131.3 66.7387 132.873 65.8054C134.473 64.872 136.246 64.4054 138.193 64.4054ZM146.353 75.6854C146.353 74.032 146.02 72.592 145.353 71.3654C144.686 70.1387 143.78 69.2054 142.633 68.5654C141.513 67.8987 140.273 67.5654 138.913 67.5654C137.553 67.5654 136.313 67.8854 135.193 68.5254C134.073 69.1654 133.18 70.0987 132.513 71.3254C131.846 72.552 131.513 73.992 131.513 75.6454C131.513 77.3254 131.846 78.792 132.513 80.0454C133.18 81.272 134.073 82.2187 135.193 82.8854C136.313 83.5254 137.553 83.8454 138.913 83.8454C140.273 83.8454 141.513 83.5254 142.633 82.8854C143.78 82.2187 144.686 81.272 145.353 80.0454C146.02 78.792 146.353 77.3387 146.353 75.6854ZM168.424 86.6854L159.824 77.0054V86.6854H156.184V57.0854H159.824V74.4854L168.264 64.7654H173.344L163.024 75.6854L173.384 86.6854H168.424ZM196.21 64.7654V86.6854H192.57V83.4454C191.877 84.5654 190.904 85.4454 189.65 86.0854C188.424 86.6987 187.064 87.0054 185.57 87.0054C183.864 87.0054 182.33 86.6587 180.97 85.9654C179.61 85.2454 178.53 84.1787 177.73 82.7654C176.957 81.352 176.57 79.632 176.57 77.6054V64.7654H180.17V77.1254C180.17 79.2854 180.717 80.952 181.81 82.1254C182.904 83.272 184.397 83.8454 186.29 83.8454C188.237 83.8454 189.77 83.2454 190.89 82.0454C192.01 80.8454 192.57 79.0987 192.57 76.8054V64.7654H196.21Z" fill="#E0EAF9"/>
<path d="M24.0114 72.3254L23.7004 71.375L23.8555 73.3131L24.0114 72.3254ZM26.7714 73.5654L26.1437 74.3438L26.1497 74.3486L26.1558 74.3534L26.7714 73.5654ZM28.7714 76.0454L27.8722 76.4828L27.8769 76.4925L27.8819 76.5022L28.7714 76.0454ZM28.4514 83.0454L29.2927 83.5862L29.2983 83.5771L28.4514 83.0454ZM25.2914 85.7254L25.7172 86.6302L25.7247 86.6266L25.2914 85.7254ZM10.0514 86.6854H9.05144V87.6854H10.0514V86.6854ZM10.0514 58.8054V57.8054H9.05144V58.8054H10.0514ZM24.8914 59.7654L24.4587 60.6669L24.4661 60.6704L24.4735 60.6739L24.8914 59.7654ZM27.8914 62.2854L27.0434 62.8154L27.0434 62.8154L27.8914 62.2854ZM27.5314 70.0054L26.7617 69.367L26.7601 69.369L27.5314 70.0054ZM13.6914 70.8454H12.6914V71.8454H13.6914V70.8454ZM23.7714 63.0054L23.1206 63.7646H23.1206L23.7714 63.0054ZM13.6914 61.8054V60.8054H12.6914V61.8054H13.6914ZM24.3714 82.4054L25.0156 83.1703H25.0156L24.3714 82.4054ZM24.2914 75.2054L23.6438 75.9673L23.6494 75.9721L23.6551 75.9767L24.2914 75.2054ZM13.6914 73.8454V72.8454H12.6914V73.8454H13.6914ZM13.6914 83.6854H12.6914V84.6854H13.6914V83.6854ZM23.8555 73.3131C24.6897 73.4448 25.4482 73.7829 26.1437 74.3438L27.3992 72.787C26.4413 72.0145 25.3598 71.5259 24.1674 71.3376L23.8555 73.3131ZM26.1558 74.3534C26.8875 74.925 27.4579 75.6312 27.8722 76.4828L29.6707 75.6079C29.125 74.4862 28.362 73.539 27.3871 72.7773L26.1558 74.3534ZM27.8819 76.5022C28.3152 77.3461 28.5314 78.2426 28.5314 79.2054H30.5314C30.5314 77.9281 30.241 76.718 29.661 75.5886L27.8819 76.5022ZM28.5314 79.2054C28.5314 80.4392 28.22 81.5334 27.6045 82.5136L29.2983 83.5771C30.1229 82.264 30.5314 80.7982 30.5314 79.2054H28.5314ZM27.6103 82.5046C27.005 83.4461 26.1045 84.2249 24.8581 84.8241L25.7247 86.6266C27.2517 85.8925 28.4579 84.8846 29.2926 83.5861L27.6103 82.5046ZM24.8656 84.8205C23.667 85.3846 22.2056 85.6854 20.4514 85.6854V87.6854C22.4306 87.6854 24.1958 87.3461 25.7172 86.6302L24.8656 84.8205ZM20.4514 85.6854H10.0514V87.6854H20.4514V85.6854ZM11.0514 86.6854V58.8054H9.05144V86.6854H11.0514ZM10.0514 59.8054H20.0514V57.8054H10.0514V59.8054ZM20.0514 59.8054C21.8355 59.8054 23.2928 60.1072 24.4587 60.6669L25.3242 58.8638C23.8234 58.1435 22.054 57.8054 20.0514 57.8054V59.8054ZM24.4735 60.6739C25.6599 61.2196 26.4965 61.9402 27.0434 62.8154L28.7394 61.7554C27.9531 60.4972 26.7897 59.5378 25.3093 58.8569L24.4735 60.6739ZM27.0434 62.8154C27.6047 63.7134 27.8914 64.7277 27.8914 65.8854H29.8914C29.8914 64.3764 29.5115 62.9906 28.7394 61.7554L27.0434 62.8154ZM27.8914 65.8854C27.8914 67.3458 27.4958 68.4818 26.7617 69.367L28.3012 70.6437C29.3805 69.3422 29.8914 67.7316 29.8914 65.8854H27.8914ZM26.7601 69.369C26.0143 70.2729 25.0085 70.9469 23.7004 71.375L24.3225 73.2758C25.9477 72.7439 27.2886 71.8711 28.3028 70.6417L26.7601 69.369ZM13.6914 71.8454H19.8114V69.8454H13.6914V71.8454ZM19.8114 71.8454C21.6645 71.8454 23.2481 71.411 24.4222 70.4046L23.1206 68.8861C22.4281 69.4797 21.3717 69.8454 19.8114 69.8454V71.8454ZM24.4222 70.4046C25.6116 69.3851 26.1714 67.982 26.1714 66.3254H24.1714C24.1714 67.4954 23.7979 68.3056 23.1206 68.8861L24.4222 70.4046ZM26.1714 66.3254C26.1714 64.6687 25.6116 63.2656 24.4222 62.2461L23.1206 63.7646C23.7979 64.3451 24.1714 65.1553 24.1714 66.3254H26.1714ZM24.4222 62.2461C23.2432 61.2355 21.6287 60.8054 19.7314 60.8054V62.8054C21.3542 62.8054 22.433 63.1752 23.1206 63.7646L24.4222 62.2461ZM19.7314 60.8054H13.6914V62.8054H19.7314V60.8054ZM12.6914 61.8054V70.8454H14.6914V61.8054H12.6914ZM20.1314 84.6854C22.0937 84.6854 23.7651 84.2233 25.0156 83.1703L23.7273 81.6405C22.9511 82.2941 21.7958 82.6854 20.1314 82.6854V84.6854ZM25.0156 83.1703C26.2892 82.0977 26.8914 80.6118 26.8914 78.8454H24.8914C24.8914 80.1189 24.4803 81.0063 23.7273 81.6405L25.0156 83.1703ZM26.8914 78.8454C26.8914 77.0401 26.2539 75.528 24.9278 74.434L23.6551 75.9767C24.4623 76.6427 24.8914 77.5573 24.8914 78.8454H26.8914ZM24.9391 74.4434C23.6463 73.3446 21.9682 72.8454 20.0114 72.8454V74.8454C21.628 74.8454 22.8032 75.2528 23.6438 75.9673L24.9391 74.4434ZM20.0114 72.8454H13.6914V74.8454H20.0114V72.8454ZM12.6914 73.8454V83.6854H14.6914V73.8454H12.6914ZM13.6914 84.6854H20.1314V82.6854H13.6914V84.6854ZM34.5827 69.7654L35.4627 70.2403L35.4658 70.2345L34.5827 69.7654ZM38.3027 65.8054L37.7988 64.9416L37.7925 64.9453L38.3027 65.8054ZM48.6227 65.6454L48.1178 66.5086H48.1178L48.6227 65.6454ZM51.7827 68.7654L50.9077 69.2494L52.7827 68.7654H51.7827ZM51.7827 64.7654V63.7654H50.7827V64.7654H51.7827ZM55.4627 64.7654H56.4627V63.7654H55.4627V64.7654ZM55.4627 86.6854V87.6854H56.4627V86.6854H55.4627ZM51.7827 86.6854H50.7827V87.6854H51.7827V86.6854ZM51.7827 82.6054H52.7827V78.7879L50.9111 82.1151L51.7827 82.6054ZM48.5427 85.8054L49.0476 86.6686L49.0525 86.6657L48.5427 85.8054ZM38.3027 85.6054L37.7818 86.459L38.3027 85.6054ZM34.5827 81.5654L35.4688 81.1019L34.5827 81.5654ZM48.0627 68.5654L47.5512 69.4247L47.5632 69.4318L47.5753 69.4386L48.0627 68.5654ZM40.6227 68.5254L40.1265 67.6571L40.6227 68.5254ZM37.9427 71.3254L38.8213 71.8029L37.9427 71.3254ZM37.9427 80.0454L37.0598 80.515L37.0641 80.5229L37.9427 80.0454ZM40.6227 82.8854L40.1112 83.7447L40.1188 83.7492L40.1265 83.7536L40.6227 82.8854ZM48.0627 82.8854L48.5588 83.7536L48.5653 83.7499L48.0627 82.8854ZM50.7827 80.0454L51.6613 80.5229L51.6656 80.515L50.7827 80.0454ZM34.2227 75.6454C34.2227 73.5424 34.6474 71.751 35.4627 70.2403L33.7027 69.2904C32.7046 71.1398 32.2227 73.2684 32.2227 75.6454H34.2227ZM35.4658 70.2345C36.2915 68.6804 37.4064 67.4998 38.8129 66.6654L37.7925 64.9453C36.0523 65.9776 34.6873 67.437 33.6996 69.2962L35.4658 70.2345ZM38.8066 66.6691C40.2457 65.8296 41.8437 65.4054 43.6227 65.4054V63.4054C41.5084 63.4054 39.5597 63.9144 37.7988 64.9416L38.8066 66.6691ZM43.6227 65.4054C45.3962 65.4054 46.8823 65.7859 48.1178 66.5086L49.1276 64.7822C47.5364 63.8515 45.6892 63.4054 43.6227 63.4054V65.4054ZM48.1178 66.5086C49.3985 67.2577 50.3132 68.1749 50.9077 69.2494L52.6577 68.2813C51.8655 66.8492 50.6735 65.6864 49.1276 64.7822L48.1178 66.5086ZM52.7827 68.7654V64.7654H50.7827V68.7654H52.7827ZM51.7827 65.7654H55.4627V63.7654H51.7827V65.7654ZM54.4627 64.7654V86.6854H56.4627V64.7654H54.4627ZM55.4627 85.6854H51.7827V87.6854H55.4627V85.6854ZM52.7827 86.6854V82.6054H50.7827V86.6854H52.7827ZM50.9111 82.1151C50.2886 83.2218 49.3434 84.1685 48.0329 84.9451L49.0525 86.6657C50.622 85.7356 51.8368 84.5489 52.6543 83.0956L50.9111 82.1151ZM48.0378 84.9422C46.8002 85.666 45.3267 86.0454 43.5827 86.0454V88.0454C45.6254 88.0454 47.4585 87.598 49.0476 86.6686L48.0378 84.9422ZM43.5827 86.0454C41.809 86.0454 40.2311 85.6105 38.8235 84.7517L37.7818 86.459C39.521 87.5202 41.463 88.0454 43.5827 88.0454V86.0454ZM38.8236 84.7517C37.4147 83.8921 36.2967 82.6847 35.4688 81.1019L33.6966 82.0289C34.682 83.9127 36.044 85.3986 37.7818 86.459L38.8236 84.7517ZM35.4688 81.1019C34.6463 79.5294 34.2227 77.7187 34.2227 75.6454H32.2227C32.2227 77.9987 32.7058 80.1346 33.6966 82.0289L35.4688 81.1019ZM52.7827 75.6854C52.7827 73.896 52.4211 72.2859 51.6613 70.8878L49.9041 71.8429C50.4776 72.8982 50.7827 74.1681 50.7827 75.6854H52.7827ZM51.6613 70.8878C50.9103 69.5059 49.8725 68.4303 48.5501 67.6922L47.5753 69.4386C48.5462 69.9804 49.3218 70.7715 49.9041 71.8429L51.6613 70.8878ZM48.5742 67.7061C47.2926 66.9432 45.8746 66.5654 44.3427 66.5654V68.5654C45.5308 68.5654 46.5928 68.8542 47.5512 69.4247L48.5742 67.7061ZM44.3427 66.5654C42.8185 66.5654 41.4059 66.926 40.1265 67.6571L41.1188 69.3936C42.0794 68.8447 43.1469 68.5654 44.3427 68.5654V66.5654ZM40.1265 67.6571C38.832 68.3969 37.8119 69.4719 37.0641 70.8479L38.8213 71.8029C39.4068 70.7255 40.1734 69.9339 41.1188 69.3936L40.1265 67.6571ZM37.0641 70.8479C36.3043 72.2459 35.9427 73.856 35.9427 75.6454H37.9427C37.9427 74.1281 38.2478 72.8582 38.8213 71.8029L37.0641 70.8479ZM35.9427 75.6454C35.9427 77.4591 36.3033 79.0927 37.0598 80.515L38.8256 79.5758C38.2487 78.4913 37.9427 77.1916 37.9427 75.6454H35.9427ZM37.0641 80.5229C37.8102 81.8958 38.8257 82.9795 40.1112 83.7447L41.1342 82.0261C40.1797 81.4579 39.4085 80.6482 38.8213 79.5679L37.0641 80.5229ZM40.1265 83.7536C41.4059 84.4847 42.8185 84.8454 44.3427 84.8454V82.8454C43.1469 82.8454 42.0794 82.566 41.1188 82.0171L40.1265 83.7536ZM44.3427 84.8454C45.8669 84.8454 47.2794 84.4847 48.5588 83.7536L47.5665 82.0171C46.6059 82.566 45.5385 82.8454 44.3427 82.8454V84.8454ZM48.5653 83.7499C49.8789 82.9862 50.9119 81.9017 51.6613 80.5229L49.9041 79.5678C49.3201 80.6423 48.5398 81.4512 47.5601 82.0209L48.5653 83.7499ZM51.6656 80.515C52.4209 79.0949 52.7827 77.4754 52.7827 75.6854H50.7827C50.7827 77.202 50.4778 78.4891 49.8998 79.5758L51.6656 80.515ZM65.2539 68.3254H64.2539L66.1445 68.7801L65.2539 68.3254ZM67.9739 65.4054L67.4736 64.5395L67.4652 64.5444L67.9739 65.4054ZM72.3339 64.3654H73.3339V63.3654H72.3339V64.3654ZM72.3339 68.1254V69.1254H73.3339V68.1254H72.3339ZM65.2539 86.6854V87.6854H66.2539V86.6854H65.2539ZM61.6139 86.6854H60.6139V87.6854H61.6139V86.6854ZM61.6139 64.7654V63.7654H60.6139V64.7654H61.6139ZM65.2539 64.7654H66.2539V63.7654H65.2539V64.7654ZM66.1445 68.7801C66.7013 67.6899 67.4781 66.8599 68.4827 66.2663L67.4652 64.5444C66.1231 65.3375 65.0866 66.4542 64.3633 67.8706L66.1445 68.7801ZM68.4742 66.2712C69.4906 65.684 70.7626 65.3654 72.3339 65.3654V63.3654C70.492 63.3654 68.8573 63.7401 67.4737 64.5395L68.4742 66.2712ZM71.3339 64.3654V68.1254H73.3339V64.3654H71.3339ZM72.3339 67.1254H71.3739V69.1254H72.3339V67.1254ZM71.3739 67.1254C69.1579 67.1254 67.3182 67.7302 66.0486 69.1076C64.7933 70.4696 64.2539 72.4172 64.2539 74.7654H66.2539C66.2539 72.6869 66.7346 71.3144 67.5192 70.4631C68.2897 69.6272 69.51 69.1254 71.3739 69.1254V67.1254ZM64.2539 74.7654V86.6854H66.2539V74.7654H64.2539ZM65.2539 85.6854H61.6139V87.6854H65.2539V85.6854ZM62.6139 86.6854V64.7654H60.6139V86.6854H62.6139ZM61.6139 65.7654H65.2539V63.7654H61.6139V65.7654ZM64.2539 64.7654V68.3254H66.2539V64.7654H64.2539ZM76.5358 69.7654L77.4159 70.2403L77.4189 70.2345L76.5358 69.7654ZM80.2558 65.8054L79.7519 64.9416L79.7456 64.9453L80.2558 65.8054ZM90.5758 65.6454L90.0709 66.5086L90.5758 65.6454ZM93.7358 68.7654L92.8608 69.2494L94.7358 68.7654H93.7358ZM93.7358 64.7654V63.7654H92.7358V64.7654H93.7358ZM97.4158 64.7654H98.4158V63.7654H97.4158V64.7654ZM97.4158 86.6854V87.6854H98.4158V86.6854H97.4158ZM93.7358 86.6854H92.7358V87.6854H93.7358V86.6854ZM93.7358 82.6054H94.7358V78.7879L92.8642 82.1151L93.7358 82.6054ZM90.4958 85.8054L91.0007 86.6686L91.0056 86.6657L90.4958 85.8054ZM80.2558 85.6054L79.7349 86.459L80.2558 85.6054ZM76.5358 81.5654L77.4219 81.1019L76.5358 81.5654ZM90.0158 68.5654L89.5043 69.4247L89.5163 69.4318L89.5284 69.4386L90.0158 68.5654ZM82.5758 68.5254L82.0797 67.6571L82.5758 68.5254ZM79.8958 71.3254L80.7744 71.8029L79.8958 71.3254ZM79.8958 80.0454L79.0129 80.515L79.0172 80.5229L79.8958 80.0454ZM82.5758 82.8854L82.0643 83.7447L82.072 83.7492L82.0797 83.7536L82.5758 82.8854ZM90.0158 82.8854L90.512 83.7536L90.5184 83.7499L90.0158 82.8854ZM92.7358 80.0454L93.6145 80.5229L93.6187 80.515L92.7358 80.0454ZM76.1758 75.6454C76.1758 73.5424 76.6005 71.751 77.4158 70.2403L75.6558 69.2904C74.6577 71.1398 74.1758 73.2684 74.1758 75.6454H76.1758ZM77.4189 70.2345C78.2446 68.6804 79.3595 67.4998 80.766 66.6654L79.7456 64.9453C78.0054 65.9776 76.6404 67.437 75.6527 69.2962L77.4189 70.2345ZM80.7597 66.6691C82.1988 65.8296 83.7968 65.4054 85.5758 65.4054V63.4054C83.4615 63.4054 81.5128 63.9144 79.7519 64.9416L80.7597 66.6691ZM85.5758 65.4054C87.3493 65.4054 88.8354 65.7859 90.0709 66.5086L91.0807 64.7822C89.4895 63.8515 87.6423 63.4054 85.5758 63.4054V65.4054ZM90.0709 66.5086C91.3517 67.2577 92.2664 68.1749 92.8608 69.2494L94.6108 68.2813C93.8186 66.8492 92.6266 65.6864 91.0807 64.7822L90.0709 66.5086ZM94.7358 68.7654V64.7654H92.7358V68.7654H94.7358ZM93.7358 65.7654H97.4158V63.7654H93.7358V65.7654ZM96.4158 64.7654V86.6854H98.4158V64.7654H96.4158ZM97.4158 85.6854H93.7358V87.6854H97.4158V85.6854ZM94.7358 86.6854V82.6054H92.7358V86.6854H94.7358ZM92.8642 82.1151C92.2417 83.2218 91.2965 84.1685 89.986 84.9451L91.0056 86.6657C92.5751 85.7356 93.7899 84.5489 94.6074 83.0956L92.8642 82.1151ZM89.9909 84.9422C88.7533 85.666 87.2798 86.0454 85.5358 86.0454V88.0454C87.5785 88.0454 89.4116 87.598 91.0007 86.6686L89.9909 84.9422ZM85.5358 86.0454C83.7621 86.0454 82.1842 85.6105 80.7767 84.7517L79.7349 86.459C81.4741 87.5202 83.4162 88.0454 85.5358 88.0454V86.0454ZM80.7767 84.7517C79.3678 83.8921 78.2498 82.6847 77.4219 81.1019L75.6497 82.0289C76.6351 83.9127 77.9971 85.3986 79.7349 86.459L80.7767 84.7517ZM77.4219 81.1019C76.5994 79.5294 76.1758 77.7187 76.1758 75.6454H74.1758C74.1758 77.9987 74.6589 80.1346 75.6497 82.0289L77.4219 81.1019ZM94.7358 75.6854C94.7358 73.896 94.3742 72.2859 93.6144 70.8878L91.8572 71.8429C92.4307 72.8982 92.7358 74.1681 92.7358 75.6854H94.7358ZM93.6144 70.8878C92.8634 69.5059 91.8257 68.4303 90.5032 67.6922L89.5284 69.4386C90.4993 69.9804 91.2749 70.7715 91.8572 71.8429L93.6144 70.8878ZM90.5273 67.7061C89.2457 66.9432 87.8277 66.5654 86.2958 66.5654V68.5654C87.4839 68.5654 88.5459 68.8542 89.5043 69.4247L90.5273 67.7061ZM86.2958 66.5654C84.7716 66.5654 83.3591 66.926 82.0797 67.6571L83.072 69.3936C84.0326 68.8447 85.1 68.5654 86.2958 68.5654V66.5654ZM82.0797 67.6571C80.7851 68.3969 79.765 69.4719 79.0172 70.8479L80.7744 71.8029C81.36 70.7255 82.1265 69.9339 83.072 69.3936L82.0797 67.6571ZM79.0172 70.8479C78.2574 72.2459 77.8958 73.856 77.8958 75.6454H79.8958C79.8958 74.1281 80.2009 72.8582 80.7744 71.8029L79.0172 70.8479ZM77.8958 75.6454C77.8958 77.4591 78.2564 79.0927 79.0129 80.515L80.7787 79.5758C80.2019 78.4913 79.8958 77.1916 79.8958 75.6454H77.8958ZM79.0172 80.5229C79.7634 81.8958 80.7788 82.9795 82.0643 83.7447L83.0873 82.0261C82.1328 81.4579 81.3616 80.6482 80.7744 79.5679L79.0172 80.5229ZM82.0797 83.7536C83.3591 84.4847 84.7716 84.8454 86.2958 84.8454V82.8454C85.1 82.8454 84.0326 82.566 83.072 82.0171L82.0797 83.7536ZM86.2958 84.8454C87.82 84.8454 89.2326 84.4847 90.5119 83.7536L89.5197 82.0171C88.5591 82.566 87.4916 82.8454 86.2958 82.8454V84.8454ZM90.5184 83.7499C91.832 82.9862 92.8651 81.9017 93.6144 80.5229L91.8572 79.5678C91.2732 80.6423 90.493 81.4512 89.5132 82.0209L90.5184 83.7499ZM93.6187 80.515C94.374 79.0949 94.7358 77.4754 94.7358 75.6854H92.7358C92.7358 77.202 92.4309 78.4891 91.8529 79.5758L93.6187 80.515ZM120.727 66.8054L120.026 67.5182L120.032 67.524L120.727 66.8054ZM123.207 86.6854V87.6854H124.207V86.6854H123.207ZM119.607 86.6854H118.607V87.6854H119.607V86.6854ZM117.967 69.2854L117.235 69.9671L117.243 69.9754L117.967 69.2854ZM108.887 69.3254L108.164 68.6345L108.156 68.643L108.887 69.3254ZM107.207 86.6854V87.6854H108.207V86.6854H107.207ZM103.567 86.6854H102.567V87.6854H103.567V86.6854ZM103.567 64.7654V63.7654H102.567V64.7654H103.567ZM107.207 64.7654H108.207V63.7654H107.207V64.7654ZM107.207 67.8854H106.207V71.2902L108.048 68.4261L107.207 67.8854ZM110.127 65.2854L109.687 64.3871L109.68 64.3909L110.127 65.2854ZM114.247 65.3654C116.694 65.3654 118.588 66.1034 120.026 67.5182L121.428 66.0925C119.56 64.254 117.134 63.3654 114.247 63.3654V65.3654ZM120.032 67.524C121.434 68.8807 122.207 70.9056 122.207 73.7654H124.207C124.207 70.5451 123.327 67.9301 121.422 66.0868L120.032 67.524ZM122.207 73.7654V86.6854H124.207V73.7654H122.207ZM123.207 85.6854H119.607V87.6854H123.207V85.6854ZM120.607 86.6854V74.2854H118.607V86.6854H120.607ZM120.607 74.2854C120.607 71.9407 120.02 69.989 118.691 68.5953L117.243 69.9754C118.101 70.8751 118.607 72.2567 118.607 74.2854H120.607ZM118.699 68.6036C117.382 67.1906 115.603 66.5254 113.487 66.5254V68.5254C115.157 68.5254 116.365 69.0335 117.235 69.9671L118.699 68.6036ZM113.487 66.5254C111.341 66.5254 109.529 67.2057 108.164 68.6345L109.61 70.0162C110.538 69.0451 111.793 68.5254 113.487 68.5254V66.5254ZM108.156 68.643C106.805 70.0908 106.207 72.1199 106.207 74.5654H108.207C108.207 72.4242 108.729 70.9599 109.618 70.0077L108.156 68.643ZM106.207 74.5654V86.6854H108.207V74.5654H106.207ZM107.207 85.6854H103.567V87.6854H107.207V85.6854ZM104.567 86.6854V64.7654H102.567V86.6854H104.567ZM103.567 65.7654H107.207V63.7654H103.567V65.7654ZM106.207 64.7654V67.8854H108.207V64.7654H106.207ZM108.048 68.4261C108.668 67.462 109.503 66.7153 110.574 66.1798L109.68 64.3909C108.298 65.0821 107.186 66.0688 106.366 67.3446L108.048 68.4261ZM110.567 66.1836C111.674 65.6419 112.895 65.3654 114.247 65.3654V63.3654C112.612 63.3654 111.087 63.7022 109.688 64.3871L110.567 66.1836ZM143.153 65.6454L142.648 66.5086L142.655 66.5126L143.153 65.6454ZM146.353 68.7654L145.478 69.2494L147.353 68.7654H146.353ZM146.353 64.7654V63.7654H145.353V64.7654H146.353ZM150.033 64.7654H151.033V63.7654H150.033V64.7654ZM148.753 92.4854L147.877 92.0023L147.874 92.0086L148.753 92.4854ZM145.073 96.1654L144.591 95.2891L144.585 95.2926L145.073 96.1654ZM132.353 95.4454L131.775 96.2614L132.353 95.4454ZM128.953 89.8854V88.8854H127.794L127.964 90.0315L128.953 89.8854ZM132.553 89.8854L133.511 89.598L133.297 88.8854H132.553V89.8854ZM135.033 93.0854L135.584 92.2506L135.577 92.2465L135.571 92.2424L135.033 93.0854ZM144.433 92.4454L143.733 91.7308L143.726 91.7383L144.433 92.4454ZM146.353 82.5654H147.353V78.7479L145.481 82.0751L146.353 82.5654ZM143.153 85.7654L142.636 84.9093L143.153 85.7654ZM132.873 85.6054L132.352 86.459L132.359 86.4629L132.873 85.6054ZM129.153 81.5654L130.039 81.1019L129.153 81.5654ZM129.153 69.7654L130.033 70.2403L130.036 70.2345L129.153 69.7654ZM132.873 65.8054L132.369 64.9416L132.363 64.9453L132.873 65.8054ZM142.633 68.5654L142.122 69.4247L142.133 69.4318L142.146 69.4386L142.633 68.5654ZM135.193 68.5254L134.697 67.6571L135.193 68.5254ZM132.513 71.3254L133.392 71.8029L132.513 71.3254ZM132.513 80.0454L131.63 80.515L131.634 80.5229L132.513 80.0454ZM135.193 82.8854L134.682 83.7447L134.689 83.7492L134.697 83.7536L135.193 82.8854ZM142.633 82.8854L143.129 83.7536L143.136 83.7499L142.633 82.8854ZM145.353 80.0454L146.232 80.5229L146.236 80.515L145.353 80.0454ZM138.193 65.4054C139.937 65.4054 141.411 65.7847 142.648 66.5086L143.658 64.7822C142.069 63.8527 140.236 63.4054 138.193 63.4054V65.4054ZM142.655 66.5126C143.962 67.2631 144.886 68.1799 145.478 69.2494L147.228 68.2813C146.433 66.8442 145.224 65.681 143.651 64.7781L142.655 66.5126ZM147.353 68.7654V64.7654H145.353V68.7654H147.353ZM146.353 65.7654H150.033V63.7654H146.353V65.7654ZM149.033 64.7654V87.1654H151.033V64.7654H149.033ZM149.033 87.1654C149.033 89.0191 148.639 90.6222 147.877 92.0023L149.629 92.9684C150.574 91.2552 151.033 89.3116 151.033 87.1654H149.033ZM147.874 92.0086C147.114 93.4099 146.027 94.4995 144.591 95.2892L145.555 97.0416C147.319 96.0712 148.685 94.7075 149.632 92.9621L147.874 92.0086ZM144.585 95.2926C143.184 96.0761 141.518 96.4854 139.553 96.4854V98.4854C141.802 98.4854 143.815 98.0147 145.561 97.0381L144.585 95.2926ZM139.553 96.4854C136.833 96.4854 134.647 95.845 132.931 94.6293L131.775 96.2614C133.899 97.7657 136.513 98.4854 139.553 98.4854V96.4854ZM132.931 94.6293C131.236 93.4286 130.249 91.8183 129.942 89.7392L127.964 90.0315C128.35 92.6457 129.63 94.7421 131.775 96.2614L132.931 94.6293ZM128.953 90.8854H132.553V88.8854H128.953V90.8854ZM131.595 90.1727C132.069 91.7519 133.055 93.0089 134.495 93.9283L135.571 92.2424C134.505 91.5618 133.837 90.6855 133.511 89.598L131.595 90.1727ZM134.482 93.9201C135.926 94.8721 137.632 95.3254 139.553 95.3254V93.3254C137.954 93.3254 136.647 92.952 135.584 92.2506L134.482 93.9201ZM139.553 95.3254C141.781 95.3254 143.675 94.6181 145.14 93.1525L143.726 91.7383C142.685 92.7793 141.325 93.3254 139.553 93.3254V95.3254ZM145.133 93.1599C146.653 91.6716 147.353 89.6256 147.353 87.1654H145.353C145.353 89.2384 144.773 90.7125 143.733 91.7309L145.133 93.1599ZM147.353 87.1654V82.5654H145.353V87.1654H147.353ZM145.481 82.0751C144.856 83.1866 143.92 84.1339 142.636 84.9093L143.67 86.6214C145.212 85.6901 146.41 84.5041 147.225 83.0556L145.481 82.0751ZM142.636 84.9093C141.401 85.6553 139.931 86.0454 138.193 86.0454V88.0454C140.241 88.0454 142.079 87.5821 143.67 86.6214L142.636 84.9093ZM138.193 86.0454C136.419 86.0454 134.825 85.6105 133.387 84.7479L132.359 86.4629C134.121 87.5202 136.073 88.0454 138.193 88.0454V86.0454ZM133.394 84.7517C131.985 83.8921 130.867 82.6847 130.039 81.1019L128.267 82.0289C129.252 83.9127 130.614 85.3986 132.352 86.459L133.394 84.7517ZM130.039 81.1019C129.217 79.5294 128.793 77.7187 128.793 75.6454H126.793C126.793 77.9987 127.276 80.1346 128.267 82.0289L130.039 81.1019ZM128.793 75.6454C128.793 73.5424 129.218 71.751 130.033 70.2403L128.273 69.2904C127.275 71.1398 126.793 73.2684 126.793 75.6454H128.793ZM130.036 70.2345C130.862 68.6804 131.977 67.4998 133.383 66.6654L132.363 64.9453C130.623 65.9776 129.258 67.437 128.27 69.2962L130.036 70.2345ZM133.377 66.6691C134.816 65.8296 136.414 65.4054 138.193 65.4054V63.4054C136.079 63.4054 134.13 63.9144 132.369 64.9416L133.377 66.6691ZM147.353 75.6854C147.353 73.896 146.991 72.2859 146.232 70.8878L144.474 71.8429C145.048 72.8982 145.353 74.1681 145.353 75.6854H147.353ZM146.232 70.8878C145.481 69.5059 144.443 68.4303 143.12 67.6922L142.146 69.4386C143.116 69.9804 143.892 70.7715 144.474 71.8429L146.232 70.8878ZM143.144 67.7061C141.863 66.9432 140.445 66.5654 138.913 66.5654V68.5654C140.101 68.5654 141.163 68.8542 142.122 69.4247L143.144 67.7061ZM138.913 66.5654C137.389 66.5654 135.976 66.926 134.697 67.6571L135.689 69.3936C136.65 68.8447 137.717 68.5654 138.913 68.5654V66.5654ZM134.697 67.6571C133.402 68.3969 132.382 69.4719 131.634 70.8479L133.392 71.8029C133.977 70.7255 134.744 69.9339 135.689 69.3936L134.697 67.6571ZM131.634 70.8479C130.875 72.2459 130.513 73.856 130.513 75.6454H132.513C132.513 74.1281 132.818 72.8582 133.392 71.8029L131.634 70.8479ZM130.513 75.6454C130.513 77.4591 130.874 79.0927 131.63 80.515L133.396 79.5758C132.819 78.4913 132.513 77.1916 132.513 75.6454H130.513ZM131.634 80.5229C132.381 81.8958 133.396 82.9795 134.682 83.7447L135.704 82.0261C134.75 81.4579 133.979 80.6482 133.392 79.5679L131.634 80.5229ZM134.697 83.7536C135.976 84.4847 137.389 84.8454 138.913 84.8454V82.8454C137.717 82.8454 136.65 82.566 135.689 82.0171L134.697 83.7536ZM138.913 84.8454C140.437 84.8454 141.85 84.4847 143.129 83.7536L142.137 82.0171C141.176 82.566 140.109 82.8454 138.913 82.8454V84.8454ZM143.136 83.7499C144.449 82.9862 145.482 81.9017 146.232 80.5229L144.474 79.5678C143.89 80.6423 143.11 81.4512 142.13 82.0209L143.136 83.7499ZM146.236 80.515C146.991 79.0949 147.353 77.4754 147.353 75.6854H145.353C145.353 77.202 145.048 78.4891 144.47 79.5758L146.236 80.515ZM168.424 86.6854L167.677 87.3495L167.975 87.6854H168.424V86.6854ZM159.824 77.0054L160.572 76.3412L158.824 74.3741V77.0054H159.824ZM159.824 86.6854V87.6854H160.824V86.6854H159.824ZM156.184 86.6854H155.184V87.6854H156.184V86.6854ZM156.184 57.0854V56.0854H155.184V57.0854H156.184ZM159.824 57.0854H160.824V56.0854H159.824V57.0854ZM159.824 74.4854H158.824V77.1623L160.579 75.141L159.824 74.4854ZM168.264 64.7654V63.7654H167.808L167.509 64.1097L168.264 64.7654ZM173.344 64.7654L174.071 65.4522L175.665 63.7654H173.344V64.7654ZM163.024 75.6854L162.297 74.9985L161.649 75.6842L162.296 76.371L163.024 75.6854ZM173.384 86.6854V87.6854H175.7L174.112 85.9998L173.384 86.6854ZM169.172 86.0212L160.572 76.3412L159.077 77.6695L167.677 87.3495L169.172 86.0212ZM158.824 77.0054V86.6854H160.824V77.0054H158.824ZM159.824 85.6854H156.184V87.6854H159.824V85.6854ZM157.184 86.6854V57.0854H155.184V86.6854H157.184ZM156.184 58.0854H159.824V56.0854H156.184V58.0854ZM158.824 57.0854V74.4854H160.824V57.0854H158.824ZM160.579 75.141L169.019 65.421L167.509 64.1097L159.069 73.8297L160.579 75.141ZM168.264 65.7654H173.344V63.7654H168.264V65.7654ZM172.617 64.0785L162.297 74.9985L163.751 76.3722L174.071 65.4522L172.617 64.0785ZM162.296 76.371L172.656 87.371L174.112 85.9998L163.752 74.9998L162.296 76.371ZM173.384 85.6854H168.424V87.6854H173.384V85.6854ZM196.21 64.7654H197.21V63.7654H196.21V64.7654ZM196.21 86.6854V87.6854H197.21V86.6854H196.21ZM192.57 86.6854H191.57V87.6854H192.57V86.6854ZM192.57 83.4454H193.57V79.9301L191.72 82.919L192.57 83.4454ZM189.65 86.0854L190.097 86.9798L190.105 86.976L189.65 86.0854ZM180.97 85.9654L180.502 86.8492L180.509 86.8528L180.516 86.8563L180.97 85.9654ZM177.73 82.7654L176.853 83.2454L176.856 83.2517L176.86 83.258L177.73 82.7654ZM176.57 64.7654V63.7654H175.57V64.7654H176.57ZM180.17 64.7654H181.17V63.7654H180.17V64.7654ZM181.81 82.1254L181.079 82.8071L181.086 82.8154L181.81 82.1254ZM190.89 82.0454L190.159 81.363L190.89 82.0454ZM192.57 64.7654V63.7654H191.57V64.7654H192.57ZM195.21 64.7654V86.6854H197.21V64.7654H195.21ZM196.21 85.6854H192.57V87.6854H196.21V85.6854ZM193.57 86.6854V83.4454H191.57V86.6854H193.57ZM191.72 82.919C191.129 83.8731 190.298 84.6319 189.195 85.1948L190.105 86.976C191.509 86.2588 192.624 85.2576 193.42 83.9717L191.72 82.919ZM189.203 85.1909C188.127 85.7288 186.922 86.0054 185.57 86.0054V88.0054C187.205 88.0054 188.72 87.6686 190.097 86.9798L189.203 85.1909ZM185.57 86.0054C184.003 86.0054 182.628 85.688 181.424 85.0745L180.516 86.8563C182.033 87.6294 183.724 88.0054 185.57 88.0054V86.0054ZM181.438 85.0816C180.256 84.4559 179.312 83.5296 178.6 82.2728L176.86 83.258C177.749 84.8278 178.964 86.0348 180.502 86.8492L181.438 85.0816ZM178.607 82.2854C177.933 81.0524 177.57 79.5067 177.57 77.6054H175.57C175.57 79.7573 175.981 81.6516 176.853 83.2454L178.607 82.2854ZM177.57 77.6054V64.7654H175.57V77.6054H177.57ZM176.57 65.7654H180.17V63.7654H176.57V65.7654ZM179.17 64.7654V77.1254H181.17V64.7654H179.17ZM179.17 77.1254C179.17 79.449 179.76 81.3923 181.079 82.8071L182.542 81.4436C181.673 80.5118 181.17 79.1217 181.17 77.1254H179.17ZM181.086 82.8154C182.405 84.1982 184.181 84.8454 186.29 84.8454V82.8454C184.613 82.8454 183.402 82.3459 182.534 81.4353L181.086 82.8154ZM186.29 84.8454C188.458 84.8454 190.277 84.1679 191.621 82.7277L190.159 81.363C189.263 82.3228 188.016 82.8454 186.29 82.8454V84.8454ZM191.621 82.7277C192.973 81.2799 193.57 79.2509 193.57 76.8054H191.57C191.57 78.9465 191.048 80.4108 190.159 81.363L191.621 82.7277ZM193.57 76.8054V64.7654H191.57V76.8054H193.57ZM192.57 65.7654H196.21V63.7654H192.57V65.7654Z" fill="#E0EAF9" mask="url(#path-4-outside-1_25_35)"/>
</g>
<defs>
<clipPath id="clip0_25_35">
<rect width="244" height="109" fill="white"/>
</clipPath>
</defs>
</svg>
